# xmcd CD database file
#
# Track frame offsets:
#       150
#       17745
#       30723
#       67892
#       104081
#       120098
#       133491
#       150827
#       181320
#       200895
#       221058
#
# Disc length: 3148 seconds
#
# Revision: 0
# Processed by: cddbd v1.5.2PL0 Copyright (c) Steve Scherf et al.
# Submitted via: jack 3.1.1
#
DISCID=9a0c4a0b
DTITLE=Reelroad - Reelroad
DYEAR=1900
DGENRE=
TTITLE0=Kesh - Swallowtail - Kesh
TTITLE1=A-minor Reel - Rip the Calico - McLeod's Reel
TTITLE2=Eagle's Whistle
TTITLE3=Entends le Loup - Andro /evchristr' ta, laou - andro
TTITLE4=Eleanor Plunkett
TTITLE5=Jolivete - Не Прячьте Ванеши Денжки - Jolivete
TTITLE6=Mike McGoldrick's - laridee
TTITLE7=Maurice Manley's - siege of Ennis - Eagan's - Tarmon's - Tralee gaol /Sean Ryan's Polka
TTITLE8=Mazurka
TTITLE9=Бенгерская
TTITLE10=Марийская - Топор ы Рукавица
EXTD=
EXTT0=
EXTT1=
EXTT2=
EXTT3=
EXTT4=
EXTT5=
EXTT6=
EXTT7=
EXTT8=
EXTT9=
EXTT10=
PLAYORDER=
